<?xml version="1.0" encoding="UTF-8" standalone="no"?>
<!DOCTYPE svg PUBLIC "-//W3C//DTD SVG 1.1//EN" "http://www.w3.org/Graphics/SVG/1.1/DTD/svg11.dtd">
<svg version="1.1" xmlns="http://www.w3.org/2000/svg" xmlns:xlink="http://www.w3.org/1999/xlink" preserveAspectRatio="xMidYMid meet" viewBox="0 0 17 17" width="17" height="17"><defs><path d="M6.42 5.24C6.2 5.75 6.01 6.17 6.01 6.17C6.01 6.17 5.58 6.21 5.06 6.24C4.54 6.28 3.6 6.35 2.96 6.4C2.32 6.44 1.45 6.51 1.02 6.54C0.59 6.57 0.21 6.6 0.17 6.6C0.16 6.6 0.14 6.6 0.09 6.61C0.13 6.65 0.15 6.67 0.16 6.67C0.2 6.71 0.62 7.09 1.11 7.52C1.59 7.95 2.23 8.52 2.52 8.78C4.28 10.35 4.69 10.71 4.7 10.73C4.73 10.74 4.81 10.41 3.95 13.87C3.6 15.31 3.31 16.5 3.31 16.5C3.31 16.51 4.52 15.81 5.99 14.95C7.46 14.09 8.67 13.39 8.68 13.39C8.69 13.39 9.24 13.73 9.89 14.13C10.54 14.53 11.5 15.14 12.04 15.47C12.57 15.8 13.17 16.17 13.35 16.29C13.54 16.4 13.7 16.5 13.71 16.5C13.71 16.5 13.71 16.48 13.71 16.45C13.7 16.4 13.14 13.81 12.63 11.49C12.51 10.93 12.41 10.46 12.41 10.45C12.41 10.43 13.31 9.67 16.57 6.92C16.93 6.62 16.93 6.61 16.89 6.6C16.87 6.6 15.49 6.46 13.82 6.29C12.16 6.13 10.79 5.99 10.77 5.98C10.75 5.97 10.69 5.83 10.5 5.36C10.36 5.02 9.92 3.95 9.53 2.98C9.13 2 8.74 1.05 8.67 0.86C8.59 0.67 8.52 0.51 8.52 0.5C8.51 0.49 8.13 1.35 7.67 2.4C7.21 3.45 6.65 4.72 6.42 5.24Z" id="ccUwKRnKG"></path></defs><g><g><g><use xlink:href="#ccUwKRnKG" opacity="1" fill="#e3e3e3" fill-opacity="1"></use><g><use xlink:href="#ccUwKRnKG" opacity="1" fill-opacity="0" stroke="#000000" stroke-width="1" stroke-opacity="0"></use></g></g></g></g></svg>