<?xml version="1.0" encoding="UTF-8" standalone="no"?>
<!DOCTYPE svg PUBLIC "-//W3C//DTD SVG 1.1//EN" "http://www.w3.org/Graphics/SVG/1.1/DTD/svg11.dtd">
<svg version="1.1" xmlns="http://www.w3.org/2000/svg" xmlns:xlink="http://www.w3.org/1999/xlink" preserveAspectRatio="xMidYMid meet" viewBox="0 0 17 17" width="17" height="17"><defs><path d="M6.4 5.2C6.17 5.71 5.98 6.14 5.98 6.14C5.98 6.15 5.55 6.18 5.02 6.22C4.5 6.25 3.54 6.32 2.9 6.37C2.25 6.42 1.37 6.48 0.94 6.51C0.51 6.54 0.12 6.57 0.08 6.58C0.07 6.58 0.05 6.58 0 6.59C0.04 6.63 0.06 6.65 0.07 6.65C0.11 6.69 0.54 7.07 1.03 7.51C1.52 7.95 2.16 8.52 2.46 8.78C4.24 10.37 4.65 10.74 4.66 10.75C4.69 10.77 4.77 10.43 3.9 13.94C3.54 15.39 3.25 16.59 3.25 16.59C3.26 16.6 4.47 15.89 5.96 15.02C7.45 14.16 8.67 13.45 8.69 13.45C8.7 13.45 9.24 13.79 9.9 14.2C10.56 14.61 11.54 15.22 12.08 15.55C12.62 15.89 13.22 16.26 13.41 16.38C13.6 16.5 13.76 16.59 13.76 16.59C13.77 16.59 13.77 16.57 13.76 16.54C13.75 16.49 13.18 13.87 12.67 11.52C12.55 10.96 12.45 10.49 12.45 10.47C12.45 10.46 13.36 9.68 16.66 6.9C17.02 6.59 17.02 6.59 16.98 6.58C16.96 6.57 15.56 6.43 13.88 6.27C12.2 6.1 10.81 5.96 10.8 5.95C10.78 5.94 10.71 5.79 10.52 5.32C10.38 4.98 9.94 3.9 9.54 2.91C9.14 1.93 8.75 0.96 8.67 0.77C8.59 0.57 8.52 0.41 8.52 0.41C8.51 0.4 8.13 1.26 7.66 2.32C7.19 3.39 6.63 4.68 6.4 5.2Z" id="d5KOwFbXr"></path></defs><g><g><g><use xlink:href="#d5KOwFbXr" opacity="1" fill="#ffca00" fill-opacity="1"></use><g><use xlink:href="#d5KOwFbXr" opacity="1" fill-opacity="0" stroke="#000000" stroke-width="1" stroke-opacity="0"></use></g></g></g></g></svg>